<svg version="1.1" id="Layer_1" xmlns="http://www.w3.org/2000/svg" xmlns:xlink="http://www.w3.org/1999/xlink" x="0px" y="0px"
	 viewBox="0 0 48 48" style="enable-background:new 0 0 48 48;" xml:space="preserve">
	<g>
		<path d="M45.2,27.2L23.9,15.7c-0.1,0-0.2,0-0.2,0L2.4,27.2c-0.3,0.2-0.2,0.8,0.1,0.8H45C45.4,28.1,45.5,27.4,45.2,27.2 M42.1,27.1
			H19.6l4-2.1c0.2-0.1,0.3-0.4,0.2-0.7s-0.3-0.4-0.5-0.3l-5.8,3.2h-2.5l8.6-4.7c0.2-0.1,0.3-0.4,0.2-0.7l0,0
			c-0.1-0.3-0.3-0.4-0.5-0.3l-10.5,5.7h-3l13.7-7.3c0.2-0.1,0.3-0.4,0.3-0.7s-0.3-0.4-0.5-0.3L7.5,27.1H5.6c-0.2,0-0.2-0.3-0.1-0.4
			l18.3-10l18.4,10C42.3,26.8,42.2,27.1,42.1,27.1"/>
	</g>
</svg>
